<?xml version="1.0" encoding="UTF-8" standalone="no"?>
<!DOCTYPE svg PUBLIC "-//W3C//DTD SVG 1.1//EN" "http://www.w3.org/Graphics/SVG/1.1/DTD/svg11.dtd">
<svg width="100%" height="100%" viewBox="0 0 980 979" version="1.1" xmlns="http://www.w3.org/2000/svg" xmlns:xlink="http://www.w3.org/1999/xlink" xml:space="preserve" xmlns:serif="http://www.serif.com/" style="fill-rule:evenodd;clip-rule:evenodd;stroke-linejoin:round;stroke-miterlimit:2;">
    <g transform="matrix(1,0,0,1,-10,-11.46)">
        <g>
            <g transform="matrix(0.1,0,0,-0.1,0,512)">
                <path d="M7477.8,3727.4C7456.7,3658.3 7433.7,3562.3 7427.9,3512.4L7416.4,3420.3L7953.8,2882.9C8251.3,2587.3 8493.1,2339.7 8493.1,2334C8493.1,2305.2 8090,2268.7 7758,2268.7L7395.2,2268.7L7406.7,2182.3C7412.5,2134.3 7422.1,2011.5 7429.7,1909.8L7443.1,1721.7L7800.1,1721.7C8326,1721.7 8679.1,1781.2 9084.1,1932.8C9320.2,2021.1 9577.4,2161.2 9767.4,2299.4L9899.8,2397.3L9709.8,2587.3C9606.1,2690.9 9514,2777.3 9506.3,2777.3C9496.7,2777.3 9450.6,2748.5 9400.7,2712C9295.1,2637.2 8984.2,2470.2 8947.8,2470.2C8934.4,2470.2 8613.8,2781.1 8233.8,3161.2C7853.8,3541.2 7537.1,3852.2 7529.4,3852.2C7522,3852.2 7498.9,3796.5 7477.8,3727.4Z" style="fill-rule:nonzero;"/>
                <path d="M1806.3,-1504.6C1203.6,-1568 650.8,-1773.3 217.1,-2092L100,-2178.3L290,-2368.3C393.6,-2471.9 485.8,-2558.3 493.4,-2558.3C503,-2558.3 549.1,-2529.5 599,-2493.1C650.8,-2456.6 767.9,-2387.5 861.9,-2337.6L1032.7,-2247.4L1748.6,-2963.3C2566.2,-3781 2466.4,-3725.3 2547,-3408.6L2587.3,-3245.5L2024.9,-2683.1C1612.2,-2270.4 1472.1,-2118.8 1495.2,-2111.2C1589.2,-2074.7 1994.2,-2034.4 2289.8,-2032.5L2621.8,-2030.6L2610.3,-1781.1C2602.6,-1642.9 2594.9,-1520.1 2591.1,-1506.7C2581.7,-1479.7 2061.5,-1477.8 1806.3,-1504.6Z" style="fill-rule:nonzero;"/>
            </g>
            <g transform="matrix(0.1,0,0,-0.1,-1.61458,512.599)">
                <path d="M7251.3,4961.5C7174.5,4879 7011.4,4610.3 6919.3,4418.3C6769.6,4105.5 6679.4,3783 6631.4,3401.1C6600.7,3157.3 6606.4,2525.9 6641,2096C6658.3,1896.4 6679.4,1581.6 6689,1399.3C6731.2,691.1 6629.5,153.7 6374.2,-266.7C6262.9,-452.9 6094,-675.5 6065.2,-677.4C6040.3,-677.4 4213.1,1149.8 4213.1,1174.7C4215,1228.4 4662.2,1527.8 4861.8,1608.5L4965.4,1650.7L5662.2,954C6458.7,157.5 6370.4,207.4 6429.9,524.1L6462.5,691.1L5930.8,1222.8C5637.1,1516.4 5406.8,1760.2 5416.4,1766C5458.6,1792.9 5967.2,1819.7 6195.6,1806.3L6441.3,1792.9L6429.8,1963.7C6422.1,2057.7 6410.6,2182.5 6402.9,2240.1L6391.4,2345.7L6074.7,2351.5C5024.8,2370.7 4324.3,2098.2 3662.1,1409.1C3122.8,846.7 2869.4,251.7 2808,-602.3C2788.8,-878.7 2790.7,-1013 2821.4,-1581.1C2863.6,-2308.5 2867.5,-2845.9 2832.9,-3095.4C2765.7,-3581 2610.3,-3987.9 2345.4,-4366C2326.2,-4396.7 2347.3,-4425.5 2514.3,-4592.5C2664,-4742.2 2710.1,-4778.7 2729.3,-4761.4C2781.1,-4719.2 2971.1,-4415.9 3061.3,-4231.7C3376.1,-3592.5 3454.8,-2976.5 3376.1,-1730.8C3336,-1093.9 3347.5,-522 3405,-230.2C3481.8,149.8 3627.6,489.6 3833,767.9L3930.9,900.3L4859.9,-28.7L5788.9,-955.7L5735.1,-999.9C5623.8,-1090.1 5408.8,-1224.5 5257.2,-1295.5C4984.7,-1422.2 5080.6,-1479.7 4337.9,-737C3979,-376.2 3679.6,-82.5 3673.8,-82.5C3658.4,-82.5 3643.1,-155.4 3608.5,-370.4L3581.6,-533.5L4063.3,-1015.3C4500.9,-1454.8 4539.3,-1499 4497.1,-1510.5C4474.1,-1518.2 4259.1,-1529.7 4023,-1535.5L3593.1,-1547L3606.5,-1808C3614.2,-1976.9 3627.6,-2072.9 3643,-2082.5C3675.6,-2103.6 4069.1,-2101.7 4358.9,-2078.7C5145.8,-2015.4 5754.2,-1750.5 6287.8,-1238.1C6817.5,-731.4 7092,-218.9 7209.1,483.5C7247.5,704.2 7241.7,1558.3 7199.5,2009.3C7151.5,2529.4 7140,2976.6 7166.9,3256.9C7211,3707.9 7349.2,4124.4 7564.2,4448.8C7621.8,4537.1 7667.9,4611.9 7667.9,4617.7C7667.9,4625.4 7583.4,4713.7 7479.8,4817.3L7291.7,5005.4L7251.3,4961.5Z" style="fill-rule:nonzero;"/>
            </g>
            <path d="M555.662,278.565C478.219,285.674 420.908,314.17 366.21,371.09C360.973,376.551 356.006,382.043 351.308,387.577L389.307,427.086L393.09,421.97L485.99,514.87L578.89,607.57L573.51,611.99C572.396,612.893 571.178,613.84 569.872,614.821L607.857,654.314C614.965,648.551 621.934,642.384 628.78,635.81C681.75,585.14 709.2,533.89 720.91,463.65C721.421,460.715 721.853,456.659 722.209,451.726L669.8,397.235C670.41,455.828 659.835,501.759 637.42,538.67C626.29,557.29 609.4,579.55 606.52,579.74C604.03,579.74 421.31,397.02 421.31,394.53C421.5,389.16 466.22,359.22 486.18,351.15L496.54,346.93L566.22,416.6C645.87,496.25 637.04,491.26 642.99,459.59L646.25,442.89L593.08,389.72C563.71,360.36 540.68,335.98 541.64,335.4C545.155,333.159 581.025,330.926 606.111,331.017L555.662,278.565Z" style="fill:rgb(18,33,224);fill-rule:nonzero;"/>
        </g>
    </g>
</svg>
